<svg version="1" xmlns="http://www.w3.org/2000/svg" width="256" height="256" viewBox="0 0 192.000000 192.000000"><path d="M77 4.9C55.7 9.5 37.2 21.1 23.7 38 17.1 46.2 9 62.1 6.6 71.5c-9.1 35.6 2.6 72.3 30.3 95.1 3.6 3 6.9 5.4 7.3 5.4.4 0 .8-11.9.8-26.5V119h-9l-.2 18.7-.3 18.8-6.8-9.7C15.6 128.1 11.5 115.7 11.6 95c0-10.9.4-15 2.2-21.5C22 44.5 43.6 22.2 72.5 13c10.6-3.4 31-3.9 42.7-1.1 34.1 8.1 59.2 35.4 64.9 70.6 1.4 9.1.7 25.5-1.6 34-2.4 8.8-9.5 22.8-16.2 32l-5.8 8-.3-18.8-.2-18.7h-8v26.5c0 30.8-1.1 29.1 11.4 17.4 13.2-12.3 22.2-27.4 26.8-44.9 3.1-12 3.1-31.8 0-44.3-8.1-32.6-32.3-57.6-64.9-67.3C109.2 2.8 89.4 2.1 77 4.9z"/><path d="M82.1 34.4c-7.2 5.8-13.1 10.8-13 11.3.1.4 1 1.8 2 3.1l1.8 2.3 11.6-9.2c8.1-6.3 11.9-8.8 12.8-8.2.6.5 5.5 4.3 10.7 8.4 12.4 9.8 11.5 9.4 13.9 6l2.1-2.9-13.5-10.6C103.1 28.8 96.6 24 96.2 24c-.5 0-6.8 4.7-14.1 10.4zM73.7 59.6c-.9 1-.9 125.2.1 125.8.4.2 2.4.7 4.5 1.1l3.7.7-.2-63.8-.3-63.9-3.5-.3c-2-.2-3.9 0-4.3.4zM92.7 59.7c-.4.3-.7 29.4-.7 64.5V188h8V59h-3.3c-1.9 0-3.7.3-4 .7zM110.7 59.6c-.4.4-.7 29.3-.7 64.2v63.4l3.8-.7c2-.3 4-1 4.5-1.4.4-.4.6-28.8.5-63.2l-.3-62.4-3.5-.3c-2-.2-3.9 0-4.3.4zM55 148.8v29.8l3.5 1.7c2 .9 3.8 1.7 4 1.7.3 0 .5-14.2.5-31.5V119h-8v29.8zM129 150.4c0 17.4.2 31.6.5 31.6s2.4-.9 4.5-2l4-2-.3-29.3-.2-29.2-4.2-.3-4.3-.3v31.5z"/></svg>